<?xml version="1.0" encoding="utf-8"?>
<!-- Generator: Adobe Illustrator 22.1.0, SVG Export Plug-In . SVG Version: 6.00 Build 0)  -->
<svg version="1.1" id="Layer_1" xmlns="http://www.w3.org/2000/svg" xmlns:xlink="http://www.w3.org/1999/xlink" x="0px" y="0px"
	 viewBox="0 0 512 512" style="enable-background:new 0 0 512 512;" xml:space="preserve">
<style type="text/css">
	.st0{fill:#366184;}
	.st1{fill:#DD9C66;}
	.st2{fill:#DBB1AB;}
	.st3{fill:#A0A0A0;}
	.st4{fill:#7D9EB7;}
	.st5{fill:none;stroke:#231F20;stroke-width:15;stroke-linecap:round;stroke-linejoin:round;stroke-miterlimit:10;}
	.st6{fill:none;stroke:#231F20;stroke-width:12;stroke-linecap:round;stroke-linejoin:round;stroke-miterlimit:10;}
	.st7{fill:none;stroke:#231F20;stroke-width:13;stroke-linecap:round;stroke-linejoin:round;stroke-miterlimit:10;}
	.st8{fill:none;stroke:#231F20;stroke-width:9;stroke-linecap:round;stroke-linejoin:round;stroke-miterlimit:10;}
	.st9{fill:none;stroke:#231F20;stroke-width:11;stroke-linecap:round;stroke-linejoin:round;stroke-miterlimit:10;}
</style>
<g>
	<g>
		<g id="XMLID_1_">
			<g>
				<circle class="st0" cx="359.1" cy="480.1" r="20.9"/>
				<path class="st1" d="M279,228.9c1,0.6,1,1.9,0,2.6l-27,15.6c-1,0.5-2.2-0.2-2.2-1.3v-31.2c0-1.2,1.2-1.9,2.2-1.3L279,228.9z"/>
				<path class="st2" d="M297.1,228.6c0,0.1,0,0.1,0,0.2c0,20-16.2,36.2-36.2,36.2c-20,0-36.2-16.2-36.2-36.2c0-0.1,0-0.1,0-0.2
					c0.1-19.9,16.3-36,36.2-36S297,208.7,297.1,228.6z M279,231.5c1-0.7,1-2,0-2.6l-27-15.6c-1-0.6-2.2,0.1-2.2,1.3v31.2
					c0,1.1,1.2,1.8,2.2,1.3L279,231.5z"/>
				<polygon class="st3" points="314.9,285.2 314.9,313.4 220.2,313.4 220.2,285.2 225.7,285.2 				"/>
				<path class="st0" d="M336.3,230.7v190.5l-0.1,0.1H199.8v-0.1V228.6h24.9c0,0.1,0,0.1,0,0.2c0,20,16.2,36.2,36.2,36.2
					c20,0,36.2-16.2,36.2-36.2c0-0.1,0-0.1,0-0.2h0.1h37C335.3,228.6,336.3,229.5,336.3,230.7z M314.9,313.4v-28.2h-89.2h-5.5v28.2
					H314.9z"/>
				<path class="st4" d="M175.8,431.9c0.8-6,5.9-10.6,12-10.6h12h136.4v21.9c0,1.2-1,2.1-2.1,2.1H187.8c-3.4,0-6.4-1.3-8.5-3.5
					c-2.2-2.2-3.5-5.1-3.6-8.4C175.7,432.9,175.7,432.4,175.8,431.9z"/>
				<path class="st4" d="M199.8,421.2L199.8,421.2l-12,0.1c-6.1,0-11.2,4.6-12,10.6V230.7c0-1.1,0.9-2.1,2.1-2.1h21.9V421.2z"/>
				<path class="st4" d="M459.6,275.7v122h-40.8H410c-17.6,0-31.9-14.2-31.9-31.8v-58.3c0-17.7,14.3-31.9,31.9-31.9H459.6z"/>
				<path class="st4" d="M133.9,307.5v58.3c0,17.7-14.3,31.9-31.9,31.9H52.4v-122v-0.1H102C119.7,275.6,133.9,289.9,133.9,307.5z"/>
			</g>
			<g>
				<path class="st5" d="M52.4,275.7v122H102c17.6,0,31.9-14.2,31.9-31.9v-58.3c0-17.6-14.2-31.9-31.9-31.9H52.4"/>
				<path class="st5" d="M410,397.7h8.8h40.8v-122H410c-17.6,0-31.9,14.2-31.9,31.9v58.3C378.1,383.5,392.4,397.7,410,397.7z"/>
				<path class="st5" d="M52.4,275.7v-0.1v-60.9C52.4,102.1,143.5,11,255.9,11c56.3,0,107.1,22.8,143.9,59.6
					c36.8,36.8,59.6,87.7,59.6,143.9v61"/>
				<path class="st6" d="M418.8,397.7V455c0,13.8-11.3,25.1-25.1,25.1h-6"/>
				<circle class="st7" cx="359.1" cy="480.1" r="20.9"/>
				<path class="st8" d="M279,228.9l-27-15.6c-1-0.6-2.2,0.1-2.2,1.3v31.2c0,1.1,1.2,1.8,2.2,1.3l27-15.6
					C280,230.8,280,229.5,279,228.9z"/>
				<path class="st9" d="M224.7,228.6c0.1-19.9,16.3-36,36.2-36s36.1,16.1,36.2,36c0,0.1,0,0.1,0,0.2c0,20-16.2,36.2-36.2,36.2
					c-20,0-36.2-16.2-36.2-36.2C224.7,228.7,224.7,228.7,224.7,228.6z"/>
				<path class="st9" d="M297.2,228.6h37c1.1,0,2.1,0.9,2.1,2.1v190.5"/>
				<path class="st9" d="M224.7,228.6h-24.9h-21.9c-1.2,0-2.1,1-2.1,2.1v201.2v1.3"/>
				<line class="st9" x1="199.8" y1="228.6" x2="199.8" y2="421.2"/>
				<path class="st9" d="M175.8,431.9c-0.1,0.5-0.1,1-0.1,1.5c0.1,3.3,1.4,6.2,3.6,8.4c2.2,2.2,5.2,3.5,8.5,3.5h146.3
					c1.1,0,2.1-0.9,2.1-2.1v-21.9H199.8h-12C181.7,421.3,176.6,425.9,175.8,431.9z"/>
				<polygon class="st8" points="225.7,285.2 314.9,285.2 314.9,313.4 220.2,313.4 220.2,285.2 				"/>
			</g>
		</g>
	</g>
</g>
</svg>
